#!OML:ASF E:/inclinewalkrobotboard/Project1/Captureday1/Session1/subject1.ASF
:FULLY-SPECIFIED
:DEGREES
301
root 0 0 0 1.8342213385585195 -10.288665383377229 0.9422642065144093
lowerback 0.3155808543454577 -1.6744278046017327 -2.613399872620228
upperback -0.3613290381975071 -2.1687194491510304 2.0421820934138775
thorax -0.4284367070712698 -1.0957312564203021 3.5169512605682325
lowerneck -26.313279425740767 -1.763005650760669 -7.391251107728058
upperneck 22.51842693520088 0.06799684281794238 2.4113757326050647
head 11.884376715897158 -0.4329812783303397 2.2465168100787305
rclavicle 2.8783458532486936E-15 -1.4566999832261427E-15
rhumerus -34.43907282434436 -4.9322319109418125 -78.09412145210891
rradius 28.47095658840074
rwrist 20.83942689097366
rhand -17.379233421907504 8.834351770037589
rfingers 7.125019999999952
rthumb 8.865426739977949 -20.93760881469246
lclavicle -1.2821094902622285E-15 1.2594860862316184E-15
lhumerus -23.477832852150367 -6.562839940052091 91.9181775158611
lradius 63.596888645772765
lwrist 4.072488719692757
lhand -27.279333325872013 22.297065625070008
lfingers 7.125019999999996
lthumb -0.7199279326427677 52.38413890772731
rfemur -24.33150356561859 6.270600460524626 32.08360036377174
rtibia 23.906487085695915
rfoot -5.345268137569198 -8.89739206548915
rtoes 11.864589366136062
lfemur -2.3634148120733456 -0.7285404863205953 -17.35444824173205
ltibia 51.76210397940372
lfoot 11.268910247040923 -14.595085813036542
ltoes -8.783470200772186
302
root 0 0 0 1.8025183636518036 -10.223425478607917 0.9065532131670784
lowerback 0.34527002706788945 -1.6366458678952436 -2.60003900342046
upperback -0.3910663603233796 -2.1195251123003347 2.02698132889851
thorax -0.4847852900314198 -1.069551061845105 3.493148608993966
lowerneck -25.97315771864256 -1.7393891383971267 -7.3798211425471765
upperneck 22.851879602919368 0.06929759454028295 2.383952555333261
head 11.952006639593613 -0.445163740198696 2.2409654855699106
rclavicle 1.9291654506178065E-15 -1.2280815130050936E-15
rhumerus -34.218703781773364 -5.285111584736014 -78.44661395125475
rradius 28.66974977906858
rwrist 20.725941628871468
rhand -17.305626886901713 8.864552927505027
rfingers 7.125019999999948
rthumb 8.937112239510931 -20.887632774058428
lclavicle -2.229597460501386E-15 1.5362376554260657E-15
lhumerus -23.65013491486936 -5.356335845905866 92.33887442917697
lradius 63.00764132536412
lwrist 3.4710299656531243
lhand -27.580677947582775 21.734374005949633
lfingers 7.125020000000005
lthumb -1.0094713957970383 51.79494514709872
rfemur -16.75296895075678 7.45898173546705 35.80003247115687
rtibia 21.13457711946046
rfoot -11.989983744679058 -8.857712001859664
rtoes 12.656116911603814
lfemur -8.663179673625832 0.4721630257395564 -14.761346903963723
ltibia 54.468297317493814
lfoot 8.533902826481418 -11.46247996909022
ltoes -9.850776303933525
303
root 0 0 0 1.7948085939945266 -10.215521849725086 0.897373977583886
lowerback 0.31806845655875393 -1.6187081744348766 -2.60772225507119
upperback -0.4186957467475905 -2.0988935989512756 2.0108151763100386
thorax -0.5026971670701098 -1.0571204882768648 3.4790703980172393
lowerneck -25.83827016263445 -1.7413092583162344 -7.39640268533244
upperneck 23.05336665504116 0.05183898616171356 2.3957084519680656
head 12.0004018676051 -0.45897392358125944 2.2474155539191276
rclavicle 1.990104731040967E-15 -9.33162753821466E-16
rhumerus -33.82209907745632 -5.391642846294212 -78.97247417730378
rradius 29.03206574317775
rwrist 20.4695952130277
rhand -17.29029767834823 8.92105548589797
rfingers 7.125019999999943
rthumb 8.952556931377291 -20.81999614294007
lclavicle -3.1188651680717776E-15 2.0189849413260734E-15
lhumerus -23.654026502867335 -4.843626012784558 92.61175626941868
lradius 62.731925332614225
lwrist 3.0442613020506606
lhand -27.875659992542133 21.356614327632084
lfingers 7.125020000000008
lthumb -1.2941690713243563 51.395044314086874
rfemur -8.36754764220264 8.520072754843758 38.30773014537057
rtibia 17.566384970981876
rfoot -19.395727185120066 -8.951753057499193
rtoes 11.226740818219982
lfemur -15.213018761154078 1.9952134910540904 -13.145857829928081
ltibia 57.222850114526025
lfoot 3.574741445313027 -8.144112945045455
ltoes -10.299480874493105
304
root 0 0 0 1.792095467898044 -10.223056299730695 0.9000740538804519
lowerback 0.25621898168699353 -1.603797439799778 -2.6266015599593424
upperback -0.4548932878131817 -2.083506637377042 1.9882835683654432
thorax -0.5091469925738634 -1.0461226620172124 3.463812029643808
lowerneck -25.805512258213696 -1.7733241493079897 -7.427877014511117
upperneck 23.18146015686961 -0.004959830123093645 2.444162802398173
head 12.039241082340883 -0.48568282811814156 2.2621365019594597
rclavicle 3.0027757074944514E-15 -6.508809711373E-16
rhumerus -33.188383713017636 -5.190237839647464 -79.73445208425167
rradius 29.60020584884097
rwrist 20.0116538840864
rhand -17.366721817953984 9.03467489963222
rfingers 7.125019999999935
rthumb 8.878845489973566 -20.700406886578463
lclavicle -3.2384396871221537E-15 2.544914137036346E-15
lhumerus -23.44321727843393 -4.439835733557051 92.69779307645415
lradius 62.62243671441456
lwrist 2.7192673732722605
lhand -28.116639084152787 21.151459901377272
lfingers 7.12502000000001
lthumb -1.5275547855651457 51.17372566232384
rfemur -3.013691550109857 8.892313588698478 39.054679182345666
rtibia 16.6433745054048
rfoot -22.939614062392515 -8.732222221296528
rtoes 9.270935007851634
lfemur -20.046740927419926 2.8168571742620445 -12.848220187941758
ltibia 58.39450636810646
lfoot -0.20728144852523123 -5.935347828975816
ltoes -8.853144631269886
305
root 0 0 0 1.7941353514532419 -10.228282423722419 0.9098785665522057
lowerback 0.19111625972162516 -1.5921519879843262 -2.645859877630869
upperback -0.4837014211451208 -2.0722287821599057 1.9604265975619768
thorax -0.5056305907364884 -1.0372298950261727 3.442806945658669
lowerneck -25.829279033207577 -1.8204594578256597 -7.460257045831168
upperneck 23.26098967121201 -0.08291766169401593 2.508104320825301
head 12.071080532872617 -0.5181237252273025 2.279186051681032
rclavicle 2.3844850983089784E-15 -5.783648345913412E-16
rhumerus -32.40627591496836 -4.5942171066330015 -80.65385137821696
rradius 30.314685439437795
rwrist 19.45737828470978
rhand -17.552642178003524 9.160080105282296
rfingers 7.125019999999929
rthumb 8.698299664471154 -20.581675734414798
lclavicle -3.1580377509920758E-15 2.712362272808695E-15
lhumerus -23.076744756327063 -3.8690539384215183 92.62426797625453
lradius 62.47130568743152
lwrist 2.481049296568771
lhand -28.26891778333636 21.024190603380006
lfingers 7.125020000000011
lthumb -1.6741173302154735 51.035091596825744
rfemur 0.38319611312579305 8.90119293854863 38.94987110478496
rtibia 17.6836222865531
rfoot -23.80834236523068 -8.478295162091694
rtoes 7.214523835169835
lfemur -23.182324882682213 2.8090663666975333 -12.443883707960653
ltibia 56.969055591670255
lfoot -2.100355579887938 -4.241846301153231
ltoes -7.946670987089043
306
root 0 0 0 1.8023073543673875 -10.231480776161764 0.9194957306691658
lowerback 0.13866615739481847 -1.5852125714513268 -2.6609442567638273
upperback -0.495731209941199 -2.066569750947698 1.9352041218289435
thorax -0.4907071140964384 -1.0322955320434737 3.4221793571447883
lowerneck -25.862971143188393 -1.8669644935707743 -7.490989737422535
upperneck 23.332047762077018 -0.15802742650809776 2.567207882907362
head 12.100990322279765 -0.5483807278446897 2.294918533734894
rclavicle -9.389951329071482E-16 -6.904923183890079E-16
rhumerus -31.54605863517109 -3.408039694494687 -81.59212247503073
rradius 31.096154575355513
rwrist 18.86539986046016
rhand -17.867743077651944 9.258437688305909
rfingers 7.12501999999993
rthumb 8.393120595043191 -20.49713286266107
lclavicle -3.745359841942077E-15 2.6516923640568484E-15
lhumerus -22.72683707435099 -3.2981897691232005 92.4979773163301
lradius 62.22028591747784
lwrist 2.353983818974335
lhand -28.32726478765505 20.900742700432495
lfingers 7.12502000000001
lthumb -1.7318225192288041 50.90425198807367
rfemur 3.8671583196047994 8.807038160823366 38.71145041561766
rtibia 19.572595608886587
rfoot -24.143757108605193 -8.113233178023334
rtoes 4.964306096122114
lfemur -26.05416621348995 2.2378123015346256 -11.803916996085578
ltibia 52.693092428271484
lfoot -3.4402005980616943 -2.392475919010681
ltoes -7.050163757221879
307
root 0 0 0 1.8092676927621132 -10.248404278594915 0.9289780657683617
lowerback 0.0845018420524477 -1.582802739269461 -2.672988287949969
upperback -0.5059647022116855 -2.0662739901090568 1.9090104087062987
thorax -0.47236625549221667 -1.0304461687088018 3.3993129365304284
lowerneck -25.903599240900594 -1.9083756065014439 -7.519534304282314
upperneck 23.435010435581425 -0.22009374340288657 2.6078116401961857
head 12.143296261569184 -0.5758436263909381 2.3058054757411175
rclavicle -3.562789480115854E-15 -1.0807713590012247E-15
rhumerus -30.80605265968251 -1.7781889064812155 -82.24118449080838
rradius 31.7218095571179
rwrist 18.349117881162254
rhand -18.240084585915184 9.315008990400852
rfingers 7.125019999999935
rthumb 8.033868499122374 -20.455167643535376
lclavicle -4.699693555968458E-15 2.497829550479201E-15
lhumerus -22.41158251805122 -2.789464242143798 92.34661484873965
lradius 61.94185951918079
lwrist 2.311235895075555
lhand -28.32277066892244 20.799566538956086
lfingers 7.125020000000008
lthumb -1.7309164163614765 50.79918751993806
rfemur 7.712982711312069 8.71646234146434 38.349370025942775
rtibia 21.66744429713102
rfoot -23.917414165992703 -7.466159859186662
rtoes 2.2362951916351617
lfemur -29.98797394156779 0.723314355889396 -10.780551049155305
ltibia 43.23928831544742
lfoot -4.763629777264946 0.36530309123172433
ltoes -5.237652456053239
308
root 0 0 0 1.8116544474949645 -10.280572707824875 0.9360713917331188
lowerback 0.023325276150283125 -1.5826153458645922 -2.685382435329568
upperback -0.5242089835816718 -2.067841577680839 1.8778004657854024
thorax -0.45846871438512515 -1.0294817268006549 3.3720403982721345
lowerneck -25.899621507490288 -1.9327797583600956 -7.5496863156329095
upperneck 23.642890315635107 -0.2542939599178152 2.620883342735382
head 12.217261657334953 -0.5974172600750259 2.312284459906552
rclavicle -2.773134006377558E-15 -1.9099210341153815E-15
rhumerus -30.47124694258835 -0.6888897007446353 -82.42022877801088
rradius 31.966802609174458
rwrist 18.092530774849195
rhand -18.466982772893278 9.343187199686476
rfingers 7.125019999999939
rthumb 7.814236041798817 -20.43384120270151
lclavicle -5.072743940425927E-15 2.3656117936780824E-15
lhumerus -22.119505190265915 -2.2540432537923354 92.19568059306829
lradius 61.71218446439256
lwrist 2.2815394796853568
lhand -28.300540293213817 20.764636614934552
lfingers 7.125020000000008
lthumb -1.7126249058367229 50.762486486705086
rfemur 11.940952701546667 8.491180567283882 37.59257995204928
rtibia 24.84401114851626
rfoot -22.308731486212388 -6.225562570745936
rtoes -1.4294858456709179
lfemur -32.300303008591754 -2.2320602802760727 -9.672192622331993
ltibia 30.473324178777197
lfoot -4.4423191969971345 2.9280100118964736
ltoes -2.547050736578127
